<?xml version="1.0" encoding="UTF-8" standalone="no"?>
<!-- Generator: Adobe Illustrator 16.0.0, SVG Export Plug-In . SVG Version: 6.00 Build 0)  -->

<svg
   xmlns:dc="http://purl.org/dc/elements/1.1/"
   xmlns:cc="http://creativecommons.org/ns#"
   xmlns:rdf="http://www.w3.org/1999/02/22-rdf-syntax-ns#"
   xmlns:svg="http://www.w3.org/2000/svg"
   xmlns="http://www.w3.org/2000/svg"
   xmlns:sodipodi="http://sodipodi.sourceforge.net/DTD/sodipodi-0.dtd"
   xmlns:inkscape="http://www.inkscape.org/namespaces/inkscape"
   version="1.1"
   x="0px"
   y="0px"
   width="110px"
   height="110px"
   viewBox="0 0 110 110"
   enable-background="new 0 0 110 110"
   xml:space="preserve"
   id="svg3075"
   inkscape:version="0.48.5 r10040"
   sodipodi:docname="zerodb.svg"><metadata
     id="metadata3109"><rdf:RDF><cc:Work
         rdf:about=""><dc:format>image/svg+xml</dc:format><dc:type
           rdf:resource="http://purl.org/dc/dcmitype/StillImage" /><dc:title></dc:title></cc:Work></rdf:RDF></metadata><defs
     id="defs3107" /><sodipodi:namedview
     pagecolor="#ffffff"
     bordercolor="#666666"
     borderopacity="1"
     objecttolerance="10"
     gridtolerance="10"
     guidetolerance="10"
     inkscape:pageopacity="0"
     inkscape:pageshadow="2"
     inkscape:window-width="733"
     inkscape:window-height="480"
     id="namedview3105"
     showgrid="false"
     inkscape:zoom="2.1454545"
     inkscape:cx="55"
     inkscape:cy="55"
     inkscape:window-x="75"
     inkscape:window-y="34"
     inkscape:window-maximized="0"
     inkscape:current-layer="svg3075" /><g
     id="Background"
     transform="matrix(0.64,0,0,0.64,19.8,19.8)"><circle
       cx="55"
       cy="55"
       r="55"
       id="circle3078"
       d="M 110,55 C 110,85.375661 85.375661,110 55,110 24.624339,110 0,85.375661 0,55 0,24.624339 24.624339,0 55,0 c 30.375661,0 55,24.624339 55,55 z"
       sodipodi:cx="55"
       sodipodi:cy="55"
       sodipodi:rx="55"
       sodipodi:ry="55"
       style="fill:#2c3e50" /></g><g
     id="icons"
     transform="matrix(0.64,0,0,0.64,19.8,19.8)"><g
       id="g3081"><g
         id="g3083"><path
           d="M 87,52 C 87,46.115 83.365,41.088 78.222,39.017 74.146,29.05 67.563,25 59.5,25 51.921,25 45.353,29.318 42.131,35.637 41.169,35.228 40.111,35 39,35 34.686,35 31.179,38.418 31.016,42.691 26.35,44.336 23,48.771 23,54 c 0,6.627 5.373,12 12,12 h 40 c 0,0 12,-2.226 12,-14 z"
           id="path3085"
           inkscape:connector-curvature="0"
           style="fill:#f0f0f0" /></g><g
         id="g3087"><path
           d="M 59.5,25 C 51.921,25 45.353,29.318 42.131,35.637 37.007,33.455 31.23,37.08 31.016,42.692 26.35,44.336 23,48.771 23,54 c 0,6.293 4.848,11.445 11.011,11.95 L 71.106,28.854 C 67.775,26.195 63.856,25 59.5,25 z"
           id="path3089"
           inkscape:connector-curvature="0"
           style="fill:#ffffff" /></g><g
         id="g3091"><path
           d="M 38.5,83.334 C 38.5,85.358 40.142,87 42.167,87 H 67.833 C 69.858,87 71.5,85.358 71.5,83.334 V 65 c 0,-2.025 -1.642,-3.666 -3.667,-3.666 H 42.167 C 40.142,61.334 38.5,62.975 38.5,65 v 18.334 z"
           id="path3093"
           inkscape:connector-curvature="0"
           style="fill:#fdd835" /></g><g
         id="g3095"><g
           id="g3097"><path
             d="m 66.917,61.334 h -5.5 V 54.917 C 61.417,51.379 58.538,48.5 55,48.5 c -3.538,0 -6.417,2.879 -6.417,6.417 v 6.417 h -5.5 V 54.917 C 43.083,48.346 48.429,43 55,43 c 6.57,0 11.917,5.346 11.917,11.917 v 6.417 z"
             id="path3099"
             inkscape:connector-curvature="0"
             style="fill:#787878" /></g></g><g
         id="g3101"><path
           d="m 57.509,69.921 c 0,-1.705 -1.383,-3.087 -3.088,-3.087 -1.705,0 -3.088,1.382 -3.088,3.087 0,1.188 0.678,2.206 1.661,2.724 L 51.333,81.5 h 6.176 l -1.661,-8.855 c 0.983,-0.518 1.661,-1.537 1.661,-2.724 z"
           id="path3103"
           inkscape:connector-curvature="0"
           style="fill:#5c1700" /></g></g></g></svg>